<svg width="22" height="22" viewBox="0 0 22 22" fill="none" xmlns="http://www.w3.org/2000/svg">
<path d="M12.1136 0.168325C12.9042 0.165292 13.6947 0.173237 14.4851 0.192159L14.6952 0.199742C14.9379 0.208409 15.1773 0.219242 15.4666 0.232242C16.6192 0.286408 17.4057 0.468409 18.0958 0.735992C18.8108 1.01116 19.4131 1.38383 20.0155 1.98616C20.5662 2.5274 20.9925 3.1821 21.2646 3.90474C21.5321 4.59483 21.7141 5.38241 21.7683 6.53508C21.7813 6.82324 21.7921 7.06374 21.8008 7.30641L21.8073 7.51658C21.8266 8.30653 21.8349 9.09672 21.8322 9.88691L21.8333 10.6951V12.1142C21.836 12.9048 21.8277 13.6953 21.8084 14.4857L21.8019 14.6958C21.7932 14.9385 21.7824 15.1779 21.7694 15.4672C21.7152 16.6198 21.5311 17.4063 21.2646 18.0964C20.9933 18.8198 20.567 19.4751 20.0155 20.0161C19.4738 20.5668 18.8187 20.993 18.0958 21.2652C17.4057 21.5327 16.6192 21.7147 15.4666 21.7689C15.1773 21.7819 14.9379 21.7927 14.6952 21.8014L14.4851 21.8079C13.6947 21.8272 12.9042 21.8355 12.1136 21.8328L11.3055 21.8339H9.88739C9.09684 21.8366 8.30629 21.8283 7.51597 21.809L7.30581 21.8025C7.04864 21.7932 6.79152 21.7823 6.53447 21.77C5.38181 21.7158 4.59531 21.5317 3.90414 21.2652C3.18121 20.9936 2.5264 20.5673 1.98556 20.0161C1.43419 19.4747 1.00755 18.8196 0.735391 18.0964C0.467807 17.4063 0.285807 16.6198 0.231641 15.4672C0.219575 15.2101 0.208742 14.953 0.199141 14.6958L0.193724 14.4857C0.173751 13.6953 0.164723 12.9048 0.166641 12.1142V9.88691C0.163617 9.09673 0.171562 8.30654 0.190474 7.51658L0.198057 7.30641C0.206724 7.06374 0.217557 6.82324 0.230557 6.53508C0.284724 5.38132 0.466724 4.59591 0.734307 3.90474C1.00663 3.18175 1.4341 2.52722 1.98664 1.98724C2.52711 1.43556 3.18152 1.00853 3.90414 0.735992C4.59531 0.468409 5.38072 0.286408 6.53447 0.232242L7.30581 0.199742L7.51597 0.194325C8.30592 0.174363 9.09611 0.165334 9.88631 0.167242L12.1136 0.168325ZM11 5.58499C10.2823 5.57484 9.56971 5.70743 8.9037 5.97507C8.23769 6.2427 7.63151 6.64003 7.12039 7.14397C6.60927 7.64791 6.20341 8.24841 5.92639 8.91057C5.64936 9.57273 5.50671 10.2833 5.50671 11.0011C5.50671 11.7189 5.64936 12.4295 5.92639 13.0917C6.20341 13.7538 6.60927 14.3543 7.12039 14.8583C7.63151 15.3622 8.23769 15.7595 8.9037 16.0272C9.56971 16.2948 10.2823 16.4274 11 16.4172C12.4366 16.4172 13.8143 15.8466 14.8301 14.8307C15.846 13.8149 16.4166 12.4372 16.4166 11.0006C16.4166 9.56399 15.846 8.18624 14.8301 7.17041C13.8143 6.15459 12.4366 5.58499 11 5.58499ZM11 7.75166C11.4317 7.7437 11.8607 7.82186 12.2618 7.98155C12.663 8.14124 13.0283 8.37928 13.3365 8.68175C13.6446 8.98422 13.8894 9.34506 14.0565 9.7432C14.2237 10.1413 14.3098 10.5688 14.3098 11.0006C14.3099 11.4324 14.2239 11.8598 14.057 12.258C13.89 12.6562 13.6453 13.0171 13.3373 13.3197C13.0292 13.6223 12.664 13.8604 12.2628 14.0203C11.8617 14.1801 11.4328 14.2584 11.0011 14.2506C10.1391 14.2506 9.31245 13.9082 8.70296 13.2987C8.09347 12.6892 7.75106 11.8625 7.75106 11.0006C7.75106 10.1386 8.09347 9.31197 8.70296 8.70248C9.31245 8.09298 10.1391 7.75058 11.0011 7.75058L11 7.75166ZM16.6875 3.95999C16.338 3.97398 16.0075 4.12266 15.7651 4.37488C15.5228 4.6271 15.3875 4.9633 15.3875 5.31308C15.3875 5.66285 15.5228 5.99905 15.7651 6.25127C16.0075 6.5035 16.338 6.65217 16.6875 6.66616C17.0466 6.66616 17.3911 6.52349 17.645 6.26953C17.899 6.01558 18.0416 5.67114 18.0416 5.31199C18.0416 4.95284 17.899 4.60841 17.645 4.35445C17.3911 4.1005 17.0466 3.95783 16.6875 3.95783V3.95999Z" fill="#5B40FF"/>
</svg>
